<?xml version="1.0" encoding="UTF-8" standalone="no"?>
<svg viewBox="0 0 447.37994 648.02081" xmlns="http://www.w3.org/2000/svg">
<defs>
<filter height="1.88235" id="filter5231" width="1.95165" x="-.47583" y="-.44118">
<feGaussianBlur stdDeviation="1.7957"/>
</filter>
<linearGradient gradientTransform="matrix(.54606,-.38318,.33177,.47279,-706.20596,525.57958)" gradientUnits="userSpaceOnUse" id="linearGradient3236" x1="-343.45288" x2="-665.57086" y1="511.34302" y2="-264.24246">
<stop offset="0"/>
<stop offset=".5397" stop-color="#ececec"/>
<stop offset="1" stop-color="#b3b3b3"/>
</linearGradient>
<linearGradient gradientTransform="matrix(.54606,-.38318,.33177,.47279,-448.04198,434.28758)" gradientUnits="userSpaceOnUse" id="linearGradient3238" x1="-848.08807" x2="-719.58044" y1="-47.6426" y2="88.05754">
<stop offset="0" stop-color="#003380"/>
<stop offset="1" stop-color="#00112b"/>
</linearGradient>
<linearGradient gradientTransform="matrix(.54606,-.38318,.33177,.47279,-448.04198,434.28758)" gradientUnits="userSpaceOnUse" id="linearGradient3240" x1="-1024.1608" x2="-848.08807" y1="-316.6781" y2="-47.6426">
<stop offset="0" stop-color="#2b0000"/>
<stop offset="1" stop-color="#f00"/>
</linearGradient>
<linearGradient gradientTransform="matrix(.54606,-.38318,.33177,.47279,-448.63798,433.73258)" gradientUnits="userSpaceOnUse" id="linearGradient3242" x1="-708.70856" x2="-1009.428" y1="283.22324" y2="-4.92316">
<stop offset="0"/>
<stop offset="1" stop-color="#ccc"/>
</linearGradient>
<radialGradient cx="259.8143" cy="210.76009" gradientTransform="matrix(2.3853,1.46552,-.18861,1.5225,-1850.272,-405.7754)" gradientUnits="userSpaceOnUse" id="radialGradient3221" r="94.10001">
<stop offset="0"/>
<stop offset="1" stop-opacity="0"/>
</radialGradient>
</defs>
<g transform="matrix(.4543,.27946,-.27946,.4543,703.80834,420.69812)">
<path d="m-589.60139,688.02926c33.9888-56.58154-24.0182-74.80183-46.00831-107.30073-8.42902-11.23905-18.92164-23.50038-33.71401-25.30594-11.18584.31338-18.81039,9.48478-27.13739,15.63294-15.23874,9.69982-32.93585,16.97915-43.95115,31.96928-4.03135,8.64439.90293,19.66808 9.39649,23.46874 28.25532,24.43164 74.3996,40.37916 96.82293,69.51023 4.40219,5.47997 44.31803-7.96961 25.2753,11.04293" fill="#b3b3b3" stroke="#000" stroke-width="8.13404"/>
<path d="m-556.99428,656.25929c8.88092,14.97382-12.3936,71.12307-7.35859,87.03253 7.72827,24.41957 11.01728,28.84159-14.25153,44.38568-2.07971,1.27933-9.08935,9.77959-12.25796,9.02459-28.16611-6.71129-26.80658-80.3357-42.20524-105.3681" fill="#b3b3b3" stroke="#000" stroke-width="8.13404"/>
<path d="m528.30978,785.68188c0,21.19989-17.18591,38.3858-38.3858,38.3858s-38.38579-17.18591-38.38579-38.3858 17.1859-38.38579 38.38579-38.38579 38.3858,17.18591 38.3858,38.38579z" fill="#808080" stroke="#000" stroke-linecap="round" stroke-linejoin="round" stroke-width="6.5" transform="matrix(1.08156,-.66532,.44101,.71692,-1472.4692,423.11603)"/>
<path d="m-623.11542,774.63269c59.68716,5.48915 37.01967-35.97702 80.30756-21.17717 18.01587,4.79681 125.86957-10.67371 113.81474.45644-11.30846,10.44103-45.86181,19.75758-66.52959,28.28791-17.11973,7.06591-38.69222,15.41111-56.57042,22.70472-18.29028,7.46174-32.57552,16.99295-48.92512,14.32527-15.38775-.36215-33.63186-32.83331-22.09717-44.59717z" fill="#666" stroke="#000" stroke-width="11.83087"/>
<g transform="matrix(-1.06587,.65567,.65567,1.06587,-707.30696,-414.46642)">
<path d="m556.48616,800.12596c7.44767-30.18728 14.97144-60.96951 13.61122-92.29676-1.03139-11.17895-3.03933-23.91773-12.35165-31.34017-7.74475-4.47016-16.77436-1.4201-25.01626-.72189-14.43339.2217-29.52659-2.23339-43.30036,3.35744-6.36327,4.19582-7.62037,13.76496-3.43062,19.90806 9.0023,28.45956 4.20012,58.63452 7.26531,87.85087 .70187,5.57307 1.99995,11.16249 4.70438,16.13008" fill="#b3b3b3" stroke="#000" stroke-width="6.5"/>
<path d="m554.57375,807.90527c-.22475,13.9102-.80642,27.46934-4.04061,40.4061-4.96419,19.85676-4.57704,24.24366-28.28427,24.24366-1.95119,0-10.28126,2.85072-12.12183,1.01015-16.36102-16.36101-14.14214-46.21509-14.14214-69.70052" fill="#b3b3b3" stroke="#000" stroke-width="6.5"/>
<path d="m528.30978,785.68188c0,21.19989-17.18591,38.3858-38.3858,38.3858s-38.38579-17.18591-38.38579-38.3858 17.1859-38.38579 38.38579-38.38579 38.3858,17.18591 38.3858,38.38579z" fill="#808080" stroke="#000" stroke-linecap="round" stroke-linejoin="round" stroke-width="6.5" transform="matrix(1.01472,0,0,.67261,30.1641,259.241)"/>
</g>
<path d="m-1028.3337,465.59051c30.40396,92.382 88.78798,145.50156 135.80006,216.47781 14.92208,34.74101 24.32061,14.78717 46.29399-.32078 64.52224-28.75014 131.91663-76.03325 190.55555-114.21012 19.14954-16.40838 45.39279-11.57022 4.35379-77.24292-31.90553-52.90131-86.84395-135.29018-136.58397-173.74396-25.25469-23.44647-21.13694-22.66352-41.14299-50.06613-16.54824-15.88215-42.69624-8.92347-61.56503.70998-49.27459,17.59113-101.94728,40.91356-130.4264,87.04004-14.9488,25.21606-13.9348,54.87653-14.625,82.5058 .5434,5.24095 3.8073,9.81552 8.187,12.97164" fill="#ccc" stroke="#000" stroke-width="13.28068"/>
<path d="m-717.91457,275.20137 52.64838,35.78548 70.36308-106.89297 51.44411,1.73824-98.01389,163.78848-124.07048-71.70952z" fill="#b3b3b3" stroke="#000" stroke-width="15.50718"/>
<path d="m-806.1946,224.86337c23.56959-21.7708 66.58502-15.41752 91.52542,13.92418 8.53569,11.79931 11.04211,28.17775 5.17248,39.45727-16.54129,12.49914-37.96212,20.42806-53.92264,30.08153-7.56151,4.50121-14.9482,11.46951-25.00158,9.45852-10.29573-4.4049-17.57975-16.5914-28.62145-18.51986-16.68848-5.31649-33.58711-3.26724-50.18091-10.04034-7.92011-5.84538-6.61872-20.34503 1.9232-21.48474 20.33099-13.36277 39.74551-28.09685 59.10548-42.87656z" fill="#808080" stroke="#000" stroke-width="7.29662"/>
<path d="m-687.35696,811.9608c-25.585,58.1544-42.6248,17.4573-51.4641,64.0797-4.9027,18.8436-73.9356,113.4937-57.777,106.7781 15.1581-6.2999 41.1901-34.8313 59.4172-50.6816 15.098-13.1293 33.6213-29.903 49.3116-43.649 16.0519-14.0629 31.9148-23.5245 37.8777-39.9326 7.5416-14.5599-20.9036-42.5627-37.3654-36.5946z" fill="#666" stroke="#000" stroke-width="12.12976"/>
<path d="m528.30978,785.68188c0,21.19989-17.18591,38.3858-38.3858,38.3858s-38.38579-17.18591-38.38579-38.3858 17.1859-38.38579 38.38579-38.38579 38.3858,17.18591 38.3858,38.38579z" fill="#808080" stroke="#000" stroke-linecap="round" stroke-linejoin="round" stroke-width="6.5" transform="matrix(.92586,-.56954,.48628,.79051,-1490.9629,.40195)"/>
<path d="m-12.84942,714.89893h3.56675v40.87005h-3.56675z" fill="#070000" stroke="#000" stroke-linecap="round" stroke-linejoin="round" stroke-width="2.75306" transform="matrix(.6939,1.16687,-.86605,.5003,6.41936,-22.27474)"/>
<path d="m-210.88893,686.86621h3.56675v40.87005h-3.56675z" fill="#070000" stroke="#000" stroke-linecap="round" stroke-linejoin="round" stroke-width="2.75306" transform="matrix(.89552,.9963,-.65544,.78695,6.41936,-22.27474)"/>
<path d="m289.03064,659.4765h3.56675v40.87005h-3.56675z" fill="#070000" stroke="#000" stroke-linecap="round" stroke-linejoin="round" stroke-width="2.75306" transform="matrix(.29167,1.26959,-1.07074,-.0057,6.41936,-22.27474)"/>
<path d="m264.92657,1014.8493h3.56676v58.90877h-3.56676z" fill="#120c0c" stroke="#000" stroke-linecap="round" stroke-linejoin="round" stroke-width="3.30525" transform="matrix(.52083,.85366,-.85267,.52245,0,0)"/>
<path d="m251.57098,821.87921h3.56676v58.90877h-3.56676z" fill="#120c0c" stroke="#000" stroke-linecap="round" stroke-linejoin="round" stroke-width="3.30525" transform="matrix(.52083,.85366,-.85267,.52245,0,0)"/>
<path d="m238.13138,834.42456h3.56675v39.13662h-3.56675z" fill="#120c0c" stroke="#000" stroke-linecap="round" stroke-linejoin="round" stroke-width="2.69404" transform="matrix(.52188,.85302,-.85314,.52169,0,0)"/>
<path d="m255.42856,1024.7656h3.56675v39.13662h-3.56675z" fill="#120c0c" stroke="#000" stroke-linecap="round" stroke-linejoin="round" stroke-width="2.69404" transform="matrix(.52188,.85302,-.85314,.52169,0,0)"/>
<path d="m-1089.2581,498.11493 122.15323,107.3059 119.53108-73.45346-36.46881-38.52445-78.58938,38.16386-84.42472-65.02444z" fill="#b3b3b3" stroke="#000" stroke-width="14.26069"/>
<path d="m-1098.2107,404.49644c-30.0602,11.21952-43.7873,52.47797-28.8453,87.97014 6.6824,12.93942 20.1707,22.56238 32.8851,22.40992 18.6154-9.12747 36.3444-23.05797 53.7711-33.94264 7.4274-4.71921 14.3726-8.79061 17.1112-18.67066 .7113-11.17585-6.8811-23.17269-3.6231-33.8976 2.7804-17.29278 12.2299-31.45155 13.6675-49.31667-1.6457-9.70507-15.1742-15.08212-20.0434-7.97197-21.0952,12.1205-43.0011,22.80462-64.9231,33.41948z" fill="#808080" stroke="#000" stroke-width="7.29662"/>
<path d="m528.30978,785.68188a38.3858,38.3858 0 1,1 -76.77159,0 38.3858,38.3858 0 1,1 76.77159,0z" fill="#808080" stroke="#000" stroke-linecap="round" stroke-linejoin="round" stroke-width="6.5" transform="matrix(.92586,-.56954,.51779,.84173,-1825.5263,184.12671)"/>
<path d="m202.53559,531.62854c5.43201,1.09317 10.91016,1.95702 16.41498,2.58848 5.96109.6838 11.94954,1.09484 17.93021,1.57833 6.64939.53755 13.29225,1.16495 19.95051,1.57833 7.14555.44364 14.3068.64053 21.46574.56818 7.66735-.0775 15.32848-.46366 22.98097-.94706 6.31962-.3992 12.63544-.8648 18.94036-1.45213 6.31976-.58871 12.6274-1.29961 18.94036-1.9572 4.9633-.517 9.93003-1.00106 14.89975-1.45213" fill="none" stroke="#000" stroke-width="7" transform="matrix(1.5969,-.98233,.98233,1.5969,-1755.13,-28.3278)"/>
<path d="m-782.81921,555.33954c1.87025,2.22203 3.84683,4.35457 5.9207,6.38787 2.25545,2.21133 4.62397,4.30354 6.96224,6.42711 2.6014,2.36254 5.1669,4.76533 7.81717,7.07291 2.85673,2.48733 5.81091,4.86301 8.85872,7.11214 3.28566,2.42465 6.67825,4.70097 10.10041,6.92881 2.83686,1.84681 5.69519,3.66109 8.59065,5.41459 2.91103,1.76293 5.85896,3.46403 8.79083,5.19208 2.30349,1.35768 4.59715,2.73205 6.88074,4.12296" fill="none" stroke="#000" stroke-width="10.10357"/>
<path d="m-783.01336,648.14509c.14252-2.90086.14586-5.80856.01-8.70974-.14775-3.15518-.45985-6.29999-.7283-9.4472-.29866-3.50139-.54344-7.00786-.9152-10.50224-.40072-3.76658-.94892-7.51765-1.6518-11.2397-.75773-4.01252-1.6947-7.98911-2.6864-11.95029-.82209-3.28371-1.68209-6.55819-2.6106-9.81341-.93349-3.27269-1.93603-6.52521-2.9085-9.78653-.76406-2.56236-1.50958-5.13025-2.2365-7.7034" fill="none" stroke="#000" stroke-width="10.10357"/>
<path d="m125.82623,935.02667h3.56676v58.90879h-3.56676z" fill="#120c0c" stroke="#000" stroke-linecap="round" stroke-linejoin="round" stroke-width="3.30525" transform="matrix(.52083,.85366,-.85267,.52245,0,0)"/>
<path d="m112.32619,943.01508h3.56675v41.62644h-3.56675z" fill="#120c0c" stroke="#000" stroke-linecap="round" stroke-linejoin="round" stroke-width="2.77842" transform="matrix(.52175,.8531,-.85305,.52182,0,0)"/>
<path d="m99.08443,948.41382h3.56674v29.71239h-3.56674z" fill="#120c0c" stroke="#000" stroke-linecap="round" stroke-linejoin="round" stroke-width="2.34737" transform="matrix(.52238,.85272,-.85357,.52097,0,0)"/>
<path d="m87.39303,954.11652h3.56674v20.30358h-3.56674z" fill="#120c0c" stroke="#000" stroke-linecap="round" stroke-linejoin="round" stroke-width="1.94043" transform="matrix(.52288,.85241,-.85442,.51959,0,0)"/>
<path d="m158.59396,394.75287c0,2.78946-1.80905,5.05076-4.04062,5.05076s-4.04061-2.2613-4.04061-5.05076 1.80905-5.05076 4.04061-5.05076 4.04062,2.2613 4.04062,5.05076z" fill="#fff" filter="url(#filter5231)" opacity=".5791" transform="matrix(5.45177,-.92253,1.86852,8.32767,-2684.02,-2681.5)"/>
<path d="m-429.16464-1164.1112h5.04849v42.60328h-5.04849z" fill="#0a0303" stroke="#000" stroke-linecap="round" stroke-linejoin="round" stroke-width="3.3441" transform="matrix(-.34383,-.93903,.9888,-.14927,0,0)"/>
<g transform="matrix(.70711,-.70711,.70711,.70711,-510.28569,-587.84127)">
<path d="m-626.41591,484.92792c9.63381-11.17873 24.34684-15.21092 37.38592-20.90597 9.96729-4.87604 19.63429-12.09334 31.22232-11.94894 11.27856.70648 20.125,10.01488 23.9103,20.11925 6.07196,14.72383 4.01569,33.70377-8.20205,44.73196-9.59373,8.46277-23.00962,19.05525-35.31562,18.55853-10.76096.17896-22.7215-9.53671-31.22474-16.9624-6.05518-4.98694-12.59907-10.04706-16.15807-17.2106-1.98238-5.21453-1.75196-10.90467-1.61806-16.38183z" fill="#999" stroke="#000" stroke-width="12.76418"/>
<path d="m-538.11586,411.30415c-27.26905-1.18029 13.1637-2.06571-4.23095,6.40574-7.76041,16.13164-12.35882,70.28047-32.66103,80.35524-.16786,12.27069-22.107,46.08342-3.60694,60.3846 9.12795,18.1829 33.68401-3.87475 31.36132-13.27821-13.20601-31.86155 34.13029-14.24665 23.96067-36.75428-13.63595-22.75429 14.5396-34.40943 7.66936-58.37211 9.68803-21.10362 10.17275-50.1391-17.36358-39.84079-1.73536.23661-3.41879.73631-5.12885,1.09981z" stroke="#000"/>
<path d="m-487.32747,431.30247c-32.92939-19.52955-142.03052-20.88962-102.39422,6.76948 32.2727,17.03531 137.90403,24.44729 113.8385-2.75199l-7.06862-3.35039-10.02249-2.58036" fill="#b3b3b3" opacity=".99" stroke="#000" stroke-width="5.27699"/>
<path d="m-576.58312,425.7192 71.00426-460.3783 46.9197-93.22221 29.55658,103.34152-64.6727,466.98019-82.80784-16.7212z" fill="#f2eeee" opacity=".99" stroke="#000" stroke-width="5.2"/>
<path d="m-572.78577,478.22964c-2.17777-5.39215 1.07039-9.13955 2.8794-13.19076 1.11936-3.27664.95058-7.31087 5.18266-9.11975 4.40432-1.56581 12.27231.21874 18.72493,3.08892 9.60222,4.0932 18.43266,10.95471 19.60709,16.70951 .82293,4.45108-3.20189,7.16589-7.8693,8.96866-3.77219,1.78749-8.41365,3.4445-15.20928,2.25284-4.68746-.74505-9.58723-1.43685-14.47606-3.33132-3.34062-1.47616-6.12631-3.47174-8.83946-5.37811z" fill="#999"/>
<path d="m-501.87477,479.40018c-.66051,5.856-.42841,8.34179-3.63489,12.68848-2.32298,3.52095-8.41673,7.27309-12.54228,9.16124-4.1541,1.623-9.55811-.425-13.37076-3.62352-5.75198-4.5675-9.67817-12.11249-8.06877-18.34465 1.31203-4.81898 5.67335-7.68853 10.1387-9.56337 3.75437-1.87214 8.13511-3.59003 12.95652-2.19872 3.35956.8766 6.90957,1.69904 9.92157,3.81991 1.97819,1.64529 3.30475,5.96044 4.59991,8.06063z" fill="#999" stroke="#000" stroke-width="5.33958"/>
<path d="m-513.10144,504.59165c-.6605,5.856-.19902,11.09302-3.40555,15.43969-2.32298,3.52095-8.63253,6.63925-12.75809,8.5274-4.15405,1.62301-9.55809-.425-13.37074-3.62352-5.75195-4.56749-9.6782-12.11249-8.06874-18.34464 1.31203-4.81898 5.67328-7.68855 10.13862-9.56338 3.7544-1.87214 8.13519-3.59002 12.95659-2.19871 3.35949.87658 6.9095,1.69902 9.92152,3.81989 1.97827,1.64531 3.29117,3.84306 4.58635,5.94326z" fill="#999" stroke="#000" stroke-width="5.33958"/>
<path d="m-528.60933,529.6776c-.6605,5.856-1.68255,10.89081-4.88903,15.2375-2.32298,3.52095-7.149,6.84145-11.27456,8.7296-4.15405,1.62301-9.55809-.425-13.37074-3.62351-5.75195-4.5675-9.6782-12.1125-8.06874-18.34465 1.31203-4.81897 5.67328-7.68855 10.13862-9.56338 3.7544-1.87214 8.13519-3.59002 12.95659-2.19871 3.35949.87659 6.9095,1.69902 9.92152,3.8199 1.97826,1.6453 3.29117,3.84306 4.58634,5.94325z" fill="#999" stroke="#000" stroke-width="5.33958"/>
<path d="m-575.09846,477.49043 13.8243,9.43968" fill="none" stroke="#000" stroke-width="1.87485"/>
<path d="m158.59396,394.75287c0,2.78946-1.80905,5.05076-4.04062,5.05076s-4.04061-2.2613-4.04061-5.05076 1.80905-5.05076 4.04061-5.05076 4.04062,2.2613 4.04062,5.05076z" fill="#060606" filter="url(#filter5231)" opacity=".5791" transform="matrix(1.75453,-4.34787,3.87345,-27.3251,-2298.46,11636.6)"/>
</g>
<g transform="translate(148.06136,-290.67186)">
<path d="m174.10176-1221.8894h3.56675v40.87003h-3.56675z" fill="#b3b3b3" stroke="#000" stroke-linecap="round" stroke-linejoin="round" stroke-width="2.75306" transform="matrix(-.6251,-.78054,.78054,-.6251,0,0)"/>
<path d="m474.04861-1134.3872h3.56675v40.87006h-3.56675z" fill="#b3b3b3" stroke="#000" stroke-linecap="round" stroke-linejoin="round" stroke-width="2.75306" transform="matrix(-.80682,-.59079,.59079,-.80682,0,0)"/>
<path d="m-1131.0783,674.2955c0,0 148.01024,299.4243 331.58014,251.2657 107.7205-156.2479-123.5156-397.27036-123.5156-397.27036l-104.03234,73.00234-104.0322,73.00232z" fill="url(#linearGradient3236)" stroke="#000" stroke-width="1.72725"/>
<path d="m-926.95196,736.735c-1.8723,1.3139-2.4634,3.6753-1.3259,5.2964l115.3322,164.3545c.6919.986 1.8557,1.4575 3.0856,1.3849 48.8078-72.6628 20.1198-164.5583-20.9689-238.488l-96.123,67.4522z" fill="url(#linearGradient3238)"/>
<path d="m-1120.3054,674.8467c0,0 34.5324,69.8485 90.473,134.0824l96.12304-67.4522c1.8723-1.3139 2.4634-3.6752 1.3259-5.2963l-90.84334-129.45661-97.0786,68.12271z" fill="url(#linearGradient3240)"/>
<path d="m-1123.2729,675.8934c0,0 142.50174,287.6321 318.14104,241.9088 102.7332-149.6184-119.3036-381.43854-119.3036-381.43854l-99.41064,69.75914-99.4268,69.7706zm10.3208.5572 92.7734-65.10166 92.77354-65.10173c0,0 207.1856,216.33269 111.3211,355.94759-163.8959,42.6662-296.86804-225.7442-296.86804-225.7442z" fill="url(#linearGradient3242)" stroke="#808080" stroke-width="1.1515"/>
</g>
<path d="m158.59396,394.75287c0,2.78946-1.80905,5.05076-4.04062,5.05076s-4.04061-2.2613-4.04061-5.05076 1.80905-5.05076 4.04061-5.05076 4.04062,2.2613 4.04062,5.05076z" fill="#fff" filter="url(#filter5231)" opacity=".5791" transform="matrix(3.69183,-4.11622,6.64705,5.35334,-3943.14,-1229.45)"/>
<path d="m158.59396,394.75287c0,2.78946-1.80905,5.05076-4.04062,5.05076s-4.04061-2.2613-4.04061-5.05076 1.80905-5.05076 4.04061-5.05076 4.04062,2.2613 4.04062,5.05076z" fill="#060606" filter="url(#filter5231)" opacity=".5791" transform="matrix(-.54099,-2.98963,-9.13284,-14.6017,2831.7,6683.78)"/>
<path d="m270.69095,180.66649a19.28572,15.71429 0 1,1 -2.21248,1.91313" fill="#ea0000" stroke="#000" stroke-linecap="round" stroke-width="2.37989" transform="matrix(1.31011,-1.38529,1.36217,1.28824,-1821.5416,198.70664)"/>
<path d="m270.69095,180.66649a19.28572,15.71429 0 1,1 -2.21248,1.91313" fill="#ea0000" stroke="#000" stroke-linecap="round" stroke-width="2.195" transform="matrix(1.5401,-1.62848,1.36217,1.28824,-1912.8736,234.98684)"/>
<path d="m270.69095,180.66649a19.28572,15.71429 0 1,1 -2.21248,1.91313" fill="#ea0000" stroke="#000" stroke-linecap="round" stroke-width="2.03875" transform="matrix(1.78522,-1.88766,1.36217,1.28824,-2009.2633,276.26951)"/>
<path d="m-1253.5016,231.29803 58.0151-137.25497 136.6013-68.52965 230.53563,218.02416-30.79491,20.30571-17.75408,12.36347c0,0-16.88795,23.24152-24.69302,35.29248-8.07212,12.4633-13.09839,16.85152-25.77161,30.58602-9.40427,10.19182-18.67933,20.61245-29.27088,29.56412-11.50057,9.71997-36.9491,25.98906-36.9491,25.98906l-11.52353,20.54329-17.8592,31.14046z" fill="#b3b3b3" stroke="#000" stroke-linecap="round" stroke-linejoin="round" stroke-width="6.64317"/>
<path d="m-974.82062-536.1969h3.56675v40.87005h-3.56675z" fill="#b3b3b3" stroke="#000" stroke-linecap="round" stroke-linejoin="round" stroke-width="6.64317" transform="matrix(.68712,-.72655,.72655,.68712,0,0)"/>
<path d="m-946.38568-536.1969h3.56675v40.87005h-3.56675z" fill="#b3b3b3" stroke="#000" stroke-linecap="round" stroke-linejoin="round" stroke-width="6.64317" transform="matrix(.68712,-.72655,.72655,.68712,0,0)"/>
<path d="m-889.51593-536.1969h3.56675v40.87005h-3.56675z" fill="#b3b3b3" stroke="#000" stroke-linecap="round" stroke-linejoin="round" stroke-width="6.64317" transform="matrix(.68712,-.72655,.72655,.68712,0,0)"/>
<path d="m-917.95081-536.1969h3.56675v40.87005h-3.56675z" fill="#b3b3b3" stroke="#000" stroke-linecap="round" stroke-linejoin="round" stroke-width="6.64317" transform="matrix(.68712,-.72655,.72655,.68712,0,0)"/>
<path d="m-861.08105-536.1969h3.56675v40.87005h-3.56675z" fill="#b3b3b3" stroke="#000" stroke-linecap="round" stroke-linejoin="round" stroke-width="6.64317" transform="matrix(.68712,-.72655,.72655,.68712,0,0)"/>
<path d="m-804.21118-536.1969h3.56675v40.87005h-3.56675z" fill="#b3b3b3" stroke="#000" stroke-linecap="round" stroke-linejoin="round" stroke-width="6.64317" transform="matrix(.68712,-.72655,.72655,.68712,0,0)"/>
<path d="m-832.64612-536.1969h3.56675v40.87005h-3.56675z" fill="#b3b3b3" stroke="#000" stroke-linecap="round" stroke-linejoin="round" stroke-width="6.64317" transform="matrix(.68712,-.72655,.72655,.68712,0,0)"/>
<path d="m-1000.4796-666.05835h225.38362v26.75895h-225.38362z" fill="#333" stroke="#000" stroke-linecap="round" stroke-linejoin="round" stroke-width="3.27792" transform="matrix(.68712,-.72655,.72655,.68712,0,0)"/>
<path d="m-1252.4343,230.09979c24.7913,21.41715 43.0832,43.77478 67.0053,66.39856 24.9188,23.56651 47.1461,49.84053 72.7107,74.01775 10.9335,10.33999 21.1267,15.38398 32.83,23.8253 5.8401,4.21227 21.5365,22.47865 26.6326,23.87395 12.0831,3.30832 28.6345-6.86194 34.3082-12.86124 2.9737-3.14431 13.8159-24.71628 13.8358-28.9394 .01-1.44687-6.2465-7.22071-7.7869-8.67756-11.6458-11.0138-20.5352-26.3877-27.214-38.86964-14.6067-27.29838-37.4039-55.34447-57.9968-81.77099-5.2716-6.76511-10.2217-15.03371-15.5552-21.27736-3.8197-4.47151-8.414-8.54952-12.3329-12.97684-4.837-5.46449-8.3342-12.04835-12.6359-17.85984-2.8045-3.78862-7.5064-8.34914-10.7063-12.09508-8.4403-9.88067-17.1559-23.15938-21.6969-32.99541-2.0023-4.33688-14.5979-22.85554-19.1241-25.30904-9.4871-5.14257-11.7342,12.92938-18.9756,12.25925" fill="url(#radialGradient3221)"/>
<path d="m270.69095,180.66649a19.28572,15.71429 0 1,1 -2.21248,1.91313" fill="#ea0000" transform="matrix(1.17646,-1.01405,2.00311,2.39805,-1937.9378,-153.625)"/>
<path d="m-1178.3186,72.29717c-13.7311-20.55146-18.7053-32.82137-32.3836-51.47967-18.0515-26.33152-20.2185-26.58141-37.033-42.52702" fill="none" stroke="#000" stroke-width="1.87485"/>
</g>
</svg>
